<svg width="50" height="50" viewBox="0 0 50 50" fill="none" xmlns="http://www.w3.org/2000/svg">
<path d="M8.33333 18.7502H18.75C18.75 16.4585 16.875 14.5835 14.5833 14.5835H8.33333C7.1875 14.5835 6.25 15.521 6.25 16.6668C6.25 17.8127 7.1875 18.7502 8.33333 18.7502Z" fill="white"/>
<path d="M45.8333 29.2917V16.6667C45.8333 14.375 43.9583 12.5 41.6666 12.5H28.5624L26.3541 10.2917L29.2916 7.35417L27.8124 5.875L20.4583 13.2292L21.9374 14.7083L24.8749 11.7708L27.0833 13.9792V18.75C27.0833 21.0417 25.2083 22.9167 22.9166 22.9167H18.6666C18.2083 22.5833 17.7291 22.2917 17.2291 22.0208L16.3958 23.875L15.4374 23.4375L16.2708 21.5625C15.1249 21.1042 13.8333 20.8333 12.4999 20.8333C11.3958 20.8333 10.3333 21.0625 9.33325 21.375L10.0416 23.2708L9.06242 23.6458L8.33325 21.7083C6.12492 22.6667 4.35409 24.375 3.27075 26.5208L5.12492 27.3542L4.68742 28.3125L2.81242 27.4792C2.35409 28.625 2.08325 29.9167 2.08325 31.25C2.08325 32.3542 2.31242 33.4167 2.62492 34.4167L4.52075 33.7083L4.89575 34.6875L2.95825 35.4167C3.91659 37.625 5.62492 39.3958 7.77075 40.4792L8.60409 38.625L9.56242 39.0625L8.72908 40.9375C9.87492 41.3958 11.1666 41.6667 12.4999 41.6667C13.6041 41.6667 14.6666 41.4375 15.6666 41.125L14.9583 39.2292L15.9374 38.8542L16.6666 40.7917C18.8749 39.8333 20.6458 38.125 21.7291 35.9792L19.8749 35.1458L20.3124 34.1875L22.1874 35.0208C22.3958 34.4792 22.5624 33.8958 22.6874 33.3125H33.4374C33.3958 33.6667 33.3333 34.0208 33.3333 34.375C33.3333 38.3958 36.6041 41.6667 40.6249 41.6667C44.6458 41.6667 47.9166 38.3958 47.9166 34.375C47.9166 32.3958 47.1249 30.6042 45.8333 29.2917ZM12.4999 37.5C9.04158 37.5 6.24992 34.7083 6.24992 31.25C6.24992 27.7917 9.04158 25 12.4999 25C15.9583 25 18.7499 27.7917 18.7499 31.25C18.7499 34.7083 15.9583 37.5 12.4999 37.5ZM22.6458 29.1667C22.5624 28.7917 22.4791 28.4375 22.3749 28.0833L20.4791 28.7917L20.1041 27.8125L22.0416 27.0833H22.9166C27.5208 27.0833 31.2499 23.3542 31.2499 18.75V16.6667H41.6666V27.1875C41.3333 27.1458 40.9791 27.0833 40.6249 27.0833C38.6458 27.0833 36.8541 27.875 35.5416 29.1667H22.6458ZM40.6249 37.5C38.8958 37.5 37.4999 36.1042 37.4999 34.375C37.4999 32.6458 38.8958 31.25 40.6249 31.25C42.3541 31.25 43.7499 32.6458 43.7499 34.375C43.7499 36.1042 42.3541 37.5 40.6249 37.5Z" fill="white"/>
</svg>
