<svg width="50" height="50" viewBox="0 0 50 50" fill="none" xmlns="http://www.w3.org/2000/svg">
<path d="M38.9584 25.8333C38.3751 25.5 37.7709 25.2292 37.1667 25C37.7709 24.7708 38.3751 24.5 38.9584 24.1667C42.9584 21.8542 45.1876 17.6667 45.2084 13.3542C43.3126 12.2708 41.1459 11.6875 38.9376 11.6875C36.8126 11.6875 34.6667 12.2292 32.7084 13.3542C32.1251 13.6875 31.5834 14.0833 31.0834 14.4792C31.1876 13.8333 31.2501 13.1667 31.2501 12.5C31.2501 7.875 28.7292 3.85417 25.0001 1.6875C21.2709 3.85417 18.7501 7.875 18.7501 12.5C18.7501 13.1667 18.8126 13.8333 18.9167 14.4792C18.4167 14.0625 17.8751 13.6667 17.2917 13.3333C15.3334 12.2083 13.1876 11.6667 11.0626 11.6667C8.87508 11.6667 6.68758 12.25 4.79175 13.3333C4.79175 17.6458 7.02092 21.8333 11.0417 24.1458C11.6251 24.4792 12.2292 24.75 12.8334 24.9792C12.2292 25.2083 11.6251 25.4792 11.0417 25.8125C7.04175 28.125 4.81258 32.3125 4.79175 36.625C6.68758 37.7083 8.85425 38.2917 11.0626 38.2917C13.1876 38.2917 15.3334 37.75 17.2917 36.625C17.8751 36.2917 18.4167 35.8958 18.9167 35.5C18.8126 36.1667 18.7501 36.8333 18.7501 37.5C18.7501 42.125 21.2709 46.1458 25.0001 48.3125C28.7292 46.1458 31.2501 42.125 31.2501 37.5C31.2501 36.8333 31.1876 36.1667 31.0834 35.5208C31.5834 35.9375 32.1251 36.3125 32.7084 36.6458C34.6667 37.7708 36.8126 38.3125 38.9376 38.3125C41.1251 38.3125 43.3126 37.7292 45.2084 36.6458C45.1876 32.3333 42.9584 28.1458 38.9584 25.8333ZM33.6667 17.75C34.1042 17.3958 34.4584 17.1458 34.7917 16.9792C36.0626 16.25 37.5001 15.8542 38.9584 15.8542C39.5209 15.8542 40.0626 15.9167 40.6042 16.0208C39.9584 17.9167 38.6459 19.5417 36.8959 20.5625C36.5417 20.7708 36.1459 20.9375 35.6876 21.125L32.8126 22.2083C32.4584 21.25 31.9584 20.3958 31.3126 19.625L33.6667 17.75ZM25.0001 7.02083C26.3126 8.52083 27.0834 10.4792 27.0834 12.5C27.0834 12.8958 27.0417 13.3542 26.9792 13.8125L26.5001 16.8125C26.0001 16.7292 25.5001 16.6667 25.0001 16.6667C24.5001 16.6667 24.0001 16.7292 23.5209 16.8125L23.0417 13.8125C22.9584 13.3542 22.9167 12.8958 22.9167 12.5C22.9167 10.4583 23.6876 8.52083 25.0001 7.02083ZM9.39592 16C9.93758 15.875 10.5001 15.8333 11.0626 15.8333C12.5001 15.8333 13.9376 16.2083 15.2084 16.9583C15.5209 17.1458 15.8751 17.375 16.2292 17.6875L18.6251 19.6875C18.0001 20.4375 17.5209 21.2708 17.1667 22.1875L14.2917 21.1042C13.8542 20.9167 13.4584 20.7292 13.1251 20.5417C11.3126 19.5 10.0209 17.8958 9.39592 16ZM16.3334 32.2292C15.8959 32.5833 15.5417 32.8333 15.2084 33C13.9376 33.7292 12.5001 34.125 11.0417 34.125C10.4792 34.125 9.93758 34.0625 9.39592 33.9583C10.0417 32.0625 11.3542 30.4375 13.1042 29.4167C13.4584 29.2083 13.8542 29.0417 14.3126 28.8542L17.1876 27.7708C17.5209 28.7292 18.0417 29.6042 18.6876 30.3542L16.3334 32.2292ZM25.0001 42.9792C23.6876 41.4792 22.9167 39.5208 22.9167 37.5C22.9167 37.0833 22.9584 36.6458 23.0417 36.1458L23.5001 33.1875C23.9792 33.2708 24.4792 33.3333 25.0001 33.3333C25.5001 33.3333 26.0001 33.2708 26.4792 33.1875L26.9584 36.1875C27.0417 36.6458 27.0834 37.1042 27.0834 37.5C27.0834 39.5417 26.3126 41.4792 25.0001 42.9792ZM38.9376 34.1458C37.5001 34.1458 36.0626 33.7708 34.7917 33.0208C34.4167 32.8125 34.0834 32.5625 33.7709 32.3125L31.3751 30.3125C32.0001 29.5625 32.5001 28.7292 32.8334 27.7917L35.7084 28.875C36.1667 29.0417 36.5626 29.2292 36.8959 29.4167C38.6667 30.4375 39.9584 32.0625 40.6042 33.9583C40.0417 34.1042 39.4792 34.1458 38.9376 34.1458Z" fill="white"/>
</svg>
