<svg id="Livello_1" data-name="Livello 1" xmlns="http://www.w3.org/2000/svg" viewBox="0 0 521 167"><defs><style>.cls-1{fill:#353432;}</style></defs><path class="cls-1" d="M123.8,158.55H89.4L52,98.35l-12.8,9.2v51H9V15.75H39.2v65.4l6-8.4,6-8.4,38.6-48.6h33.6L73.6,79Zm91.21,0h-82.2V15.75H215v24.8H163V72h48.4v24.8H163v36.8h52Zm75.72,0h-30.2V41h-38.8V15.75h107.8V41h-38.8ZM468.24,87a102.06,102.06,0,0,1-4.2,30.2,62.75,62.75,0,0,1-12.4,23.2,52.51,52.51,0,0,1-21.2,15q-12.79,5.21-30.2,5.2t-30.4-5.2a57.23,57.23,0,0,1-21.2-15,66.49,66.49,0,0,1-12.4-23.4,106.7,106.7,0,0,1-4-30.2q0-22.2,7.2-38.6a55.45,55.45,0,0,1,22.4-25.4q15.2-9.19,38.6-9.2,23.21,0,38.2,9.2a54.14,54.14,0,0,1,22.2,25.6Q468.24,64.75,468.24,87ZM364,87q0,15,3.8,25.8t11.8,16.6q8,5.81,20.6,5.8,13,0,20.8-5.8,8-5.8,11.6-16.6,3.8-10.8,3.8-25.8,0-22.61-8.4-35.4t-27.6-12.8q-12.79,0-20.8,5.8t-11.8,16.6Q364,71.95,364,87Z"/><path class="cls-1" d="M492,54.55a20,20,0,1,1,20-20A20,20,0,0,1,492,54.55Zm0-37a17,17,0,1,0,17,17A17,17,0,0,0,492,17.55Z"/><path class="cls-1" d="M491.15,25.41A10.78,10.78,0,0,1,495,26a4.37,4.37,0,0,1,2.26,1.7,5.15,5.15,0,0,1,.74,2.86,4.5,4.5,0,0,1-.45,2.06,4.61,4.61,0,0,1-1.18,1.49,6.7,6.7,0,0,1-1.56,1l5,7.47h-4L491.73,36h-2v6.58h-3.62V25.41Zm-.26,3h-1.11V33H491a6.06,6.06,0,0,0,1.94-.26A2,2,0,0,0,494,32a2.4,2.4,0,0,0,.34-1.32,2,2,0,0,0-.38-1.29,2,2,0,0,0-1.13-.72A6.42,6.42,0,0,0,490.89,28.39Z"/></svg>