<svg width="31" height="32" viewBox="0 0 31 32" fill="none" xmlns="http://www.w3.org/2000/svg">
<path d="M11.6252 18.3334C8.60266 18.3334 2.5835 19.8934 2.5835 23.0001V25.3334H20.6668V23.0001C20.6668 19.8934 14.6477 18.3334 11.6252 18.3334ZM5.606 22.6668C6.691 21.8934 9.31308 21.0001 11.6252 21.0001C13.9372 21.0001 16.5593 21.8934 17.6443 22.6668H5.606ZM11.6252 16.0001C14.1181 16.0001 16.146 13.9067 16.146 11.3334C16.146 8.76008 14.1181 6.66675 11.6252 6.66675C9.13225 6.66675 7.10433 8.76008 7.10433 11.3334C7.10433 13.9067 9.13225 16.0001 11.6252 16.0001ZM11.6252 9.33342C12.6972 9.33342 13.5627 10.2267 13.5627 11.3334C13.5627 12.4401 12.6972 13.3334 11.6252 13.3334C10.5531 13.3334 9.68766 12.4401 9.68766 11.3334C9.68766 10.2267 10.5531 9.33342 11.6252 9.33342ZM20.7185 18.4134C22.2168 19.5334 23.2502 21.0268 23.2502 23.0001V25.3334H28.4168V23.0001C28.4168 20.3068 23.896 18.7734 20.7185 18.4134ZM19.3752 16.0001C21.8681 16.0001 23.896 13.9067 23.896 11.3334C23.896 8.76008 21.8681 6.66675 19.3752 6.66675C18.6777 6.66675 18.0318 6.84008 17.4377 7.13341C18.2514 8.32008 18.7293 9.77342 18.7293 11.3334C18.7293 12.8934 18.2514 14.3467 17.4377 15.5334C18.0318 15.8267 18.6777 16.0001 19.3752 16.0001Z" fill="white"/>
</svg>
