<svg id="Livello_1" data-name="Livello 1" xmlns="http://www.w3.org/2000/svg" viewBox="0 0 121 123"><defs><style>.cls-1{fill:#fff;}</style></defs><path class="cls-1" d="M28.27,25.8l-5.19-6.52,1.46-1.16,5.19,6.52Zm-1-3.57-.87-1.09,1.38-1.09a1.28,1.28,0,0,0,.49-.75,1,1,0,0,0-.23-.78,1,1,0,0,0-.7-.39,1.15,1.15,0,0,0-.84.29L25.1,19.53l-.9-1.14,1.55-1.23a3.31,3.31,0,0,1,1.34-.67,2.29,2.29,0,0,1,2.36.84A2.39,2.39,0,0,1,30,18.58a2.34,2.34,0,0,1-.25,1.28,3.34,3.34,0,0,1-1,1.18Zm4.55.75-4.26-1.19,1.05-1.44,4.94,1.26Z"/><path class="cls-1" d="M34,21.37l-4.18-7.21,1.62-.94,4.18,7.21Zm-2.14-6.54-.8-1.39L35,11.18l.8,1.39Zm1.64,2.82-.79-1.36,3.59-2.08.79,1.35Zm1.74,3-.81-1.39,4-2.3.81,1.39Z"/><path class="cls-1" d="M39.47,18.14l.08-9,1.58-.6,6,6.61-1.84.7-4.8-5.55.64-.25.09,7.36Zm1.22-2.08-.54-1.41L44.38,13l.54,1.41Z"/><path class="cls-1" d="M47.68,15.08,46.09,6.9l1.83-.35,1.59,8.17Zm1.25-.24-.31-1.6,2-.4a2.67,2.67,0,0,0,1.23-.55,2,2,0,0,0,.68-1,2.81,2.81,0,0,0,0-1.39A2.79,2.79,0,0,0,52,8.6a2.19,2.19,0,0,0-1-.69,2.69,2.69,0,0,0-1.33,0l-2.08.41-.31-1.6,2.1-.41a5,5,0,0,1,1.76,0,4.35,4.35,0,0,1,1.54.58,4.12,4.12,0,0,1,1.16,1.12,4,4,0,0,1,.64,1.59,4.06,4.06,0,0,1,0,1.7,4.18,4.18,0,0,1-.65,1.48,4.12,4.12,0,0,1-1.2,1.11,4.86,4.86,0,0,1-1.63.63Z"/><path class="cls-1" d="M58.25,13.36,58.59,5l1.35.06L63,10.33l-.69,0,3.47-5,1.35.06-.35,8.32-1.85-.08.22-5.2.31.11L63.2,11.77l-1.22,0-2-3.4.32-.09-.21,5.2Z"/><path class="cls-1" d="M71.83,15a4.45,4.45,0,0,1-1.62-.73A4.34,4.34,0,0,1,69.06,13a4,4,0,0,1-.58-1.55,4.23,4.23,0,0,1,.07-1.73,4.52,4.52,0,0,1,.72-1.57,4.31,4.31,0,0,1,1.22-1.11,4.14,4.14,0,0,1,1.57-.55,4.45,4.45,0,0,1,1.77.09,4.67,4.67,0,0,1,1.6.72,4.31,4.31,0,0,1,1.15,1.22,4,4,0,0,1,.58,1.54,4.49,4.49,0,0,1-.09,1.74,4.26,4.26,0,0,1-.72,1.57,4.41,4.41,0,0,1-1.21,1.11,4.4,4.4,0,0,1-3.31.48Zm.37-1.66a2.53,2.53,0,0,0,1.34,0,2.33,2.33,0,0,0,1.06-.69,3.14,3.14,0,0,0,.7-2.33,2.38,2.38,0,0,0-.3-.92,2.14,2.14,0,0,0-.64-.7,2.82,2.82,0,0,0-.93-.42,2.68,2.68,0,0,0-1.35,0,2.28,2.28,0,0,0-1,.68,2.89,2.89,0,0,0-.62,1.25,3.18,3.18,0,0,0-.08,1.09,2.42,2.42,0,0,0,.3.93,2.34,2.34,0,0,0,.63.7A2.59,2.59,0,0,0,72.2,13.32Z"/><path class="cls-1" d="M76.86,16.25l3.32-7.64,1.72.74L78.57,17Zm2.67-2.57.56-1.28,1.61.7a1.19,1.19,0,0,0,.89.09,1,1,0,0,0,.58-.57,1,1,0,0,0,0-.8,1.11,1.11,0,0,0-.65-.6l-1.62-.71.58-1.33,1.81.79a3.21,3.21,0,0,1,1.22.87A2.42,2.42,0,0,1,85.08,12a2.55,2.55,0,0,1-1,2.36,2.3,2.3,0,0,1-1.25.38,3.33,3.33,0,0,1-1.49-.31ZM81,18.05l-.94-4.32,1.75.25,1.21,5Z"/><path class="cls-1" d="M83.45,19.22l4.41-7.07,1.58,1L85,20.21Zm1.21.76.85-1.36L89.4,21l-.85,1.36ZM86.5,17l.83-1.34,3.52,2.2L90,19.23Zm1.72-2.77.85-1.36,3.82,2.38L92,16.66Z"/><path class="cls-1" d="M92.37,22.62l1-1.18,3.14,2.8L95.5,25.42Z"/><path class="cls-1" d="M96.36,29.43l6.54-5.16,1.16,1.47-6.55,5.15ZM99.16,33l1.21-4.26,1.43,1.05-1.28,4.94Zm.77-4.56,1.09-.86L102.11,29a1.21,1.21,0,0,0,.74.5,1,1,0,0,0,.78-.22,1,1,0,0,0,.4-.7,1.15,1.15,0,0,0-.29-.84l-1.09-1.4,1.14-.89L105,27a3.06,3.06,0,0,1,.66,1.34,2.29,2.29,0,0,1-.08,1.3,2.25,2.25,0,0,1-.77,1,2.3,2.3,0,0,1-1.25.53,2.34,2.34,0,0,1-1.28-.25,3.17,3.17,0,0,1-1.17-1Z"/><path class="cls-1" d="M100.75,35.17,108,31l.93,1.62-7.23,4.15Zm.71,1.24,1.4-.8,2.27,4-1.39.8Zm3-1.73,1.36-.78,2.07,3.6-1.36.78Zm2.83-1.62,1.39-.8,2.24,3.91-1.39.8Z"/><path class="cls-1" d="M104,40.65l9,.13.6,1.58-6.64,6-.69-1.84,5.57-4.77.24.64-7.35.06ZM106,41.89l1.41-.54,1.6,4.24-1.41.53Z"/><path class="cls-1" d="M107,48.9l8.19-1.55.35,1.83-8.19,1.56Zm.24,1.26,1.6-.31.38,2a2.82,2.82,0,0,0,.55,1.24,2.15,2.15,0,0,0,1,.68,3.11,3.11,0,0,0,2.66-.51,2.07,2.07,0,0,0,.7-1,2.85,2.85,0,0,0,0-1.34l-.39-2.07,1.6-.3.39,2.09a4.81,4.81,0,0,1,0,1.77,4.23,4.23,0,0,1-.58,1.53,4,4,0,0,1-1.13,1.15,4.42,4.42,0,0,1-3.29.63,3.92,3.92,0,0,1-1.47-.66,4.25,4.25,0,0,1-1.11-1.2,4.83,4.83,0,0,1-.63-1.64Z"/><path class="cls-1" d="M108.65,59.47l8.32.38-.06,1.34-5.25,3,0-.69,5,3.5-.06,1.34L108.26,68l.08-1.85,5.2.24-.11.31-3.21-2.27.06-1.23,3.4-2,.08.32-5.19-.23Z"/><path class="cls-1" d="M107,73.05a4.54,4.54,0,0,1,.74-1.62,4.22,4.22,0,0,1,4.51-1.63,4.28,4.28,0,0,1,2.68,2,4.19,4.19,0,0,1,.54,1.57,4.65,4.65,0,0,1-.1,1.77,4.51,4.51,0,0,1-.73,1.6,4.41,4.41,0,0,1-1.22,1.14,3.87,3.87,0,0,1-1.55.57,4.28,4.28,0,0,1-5-3.6A4.34,4.34,0,0,1,107,73.05Zm1.66.38a2.43,2.43,0,0,0,0,1.34,2.23,2.23,0,0,0,.68,1.06,2.79,2.79,0,0,0,1.25.63,3.07,3.07,0,0,0,1.07.09,2.42,2.42,0,0,0,.93-.3,2.24,2.24,0,0,0,.7-.64,2.82,2.82,0,0,0,.42-.93,2.54,2.54,0,0,0,0-1.34,2.19,2.19,0,0,0-.68-1.06,3,3,0,0,0-1.25-.63,3.11,3.11,0,0,0-1.08-.08,2.41,2.41,0,0,0-.93.29,2.14,2.14,0,0,0-.7.64A2.48,2.48,0,0,0,108.62,73.43Z"/><path class="cls-1" d="M103.85,82.2l4.33-.93L107.92,83l-5,1.19Zm1.83-4.15,7.62,3.36-.75,1.71-7.62-3.36Zm2.55,2.69,1.28.56-.71,1.61a1.19,1.19,0,0,0-.09.89.94.94,0,0,0,.56.58,1,1,0,0,0,.8,0,1.17,1.17,0,0,0,.61-.66l.72-1.62,1.32.59-.8,1.81a3.21,3.21,0,0,1-.87,1.22,2.53,2.53,0,0,1-1.19.54,2.26,2.26,0,0,1-1.29-.2,2.32,2.32,0,0,1-1.06-.84,2.55,2.55,0,0,1-.38-1.26,3.36,3.36,0,0,1,.33-1.49Z"/><path class="cls-1" d="M101.91,85.83l1.36.86-2.44,3.87-1.36-.85Zm.76-1.2,7,4.43-1,1.58-7-4.44Zm2.17,3.05,1.33.84L104,92l-1.33-.83Zm2.76,1.74,1.36.85-2.4,3.82-1.36-.86Z"/><path class="cls-1" d="M99.24,93.53l1.17,1.06L97.6,97.71l-1.18-1.06Z"/><path class="cls-1" d="M88.84,100.27l4.25,1.24L92,102.93l-4.93-1.3Zm4.55.79.85,1.1-1.38,1.08a1.21,1.21,0,0,0-.5.74.92.92,0,0,0,.22.78,1,1,0,0,0,.69.41,1.19,1.19,0,0,0,.85-.29l1.39-1.09.9,1.14-1.57,1.22a3.29,3.29,0,0,1-1.34.66,2.38,2.38,0,0,1-1.3-.09,2.34,2.34,0,0,1-1-.78,2.37,2.37,0,0,1-.53-1.25,2.35,2.35,0,0,1,.26-1.28,3.43,3.43,0,0,1,1-1.16Zm-1-3.57,5.12,6.57-1.47,1.14-5.12-6.57Z"/><path class="cls-1" d="M85.39,102.57l.79,1.4-4,2.26-.79-1.4Zm1.71,3,.78,1.36-3.62,2-.77-1.36Zm1.61,2.83.79,1.4L85.58,112l-.79-1.39Zm-2.08-6.55,4.11,7.24-1.62.92L85,102.79Z"/><path class="cls-1" d="M81.15,105,81,114l-1.58.59-6-6.66,1.85-.69,4.74,5.6-.64.24,0-7.36Zm-1.24,2.06.52,1.41-4.24,1.59-.53-1.42Z"/><path class="cls-1" d="M71.62,108.26l.3,1.6-2,.37a2.7,2.7,0,0,0-1.24.54,2.1,2.1,0,0,0-.69,1,2.79,2.79,0,0,0,0,1.39,2.64,2.64,0,0,0,.55,1.27,2.07,2.07,0,0,0,1,.7,2.68,2.68,0,0,0,1.33.06l2.08-.38.3,1.6-2.11.39a5,5,0,0,1-1.76,0,4.08,4.08,0,0,1-1.53-.6,4,4,0,0,1-1.15-1.12,4.13,4.13,0,0,1-.63-1.6,4.22,4.22,0,0,1,0-1.7,4.1,4.1,0,0,1,.67-1.47,4,4,0,0,1,1.21-1.1,4.62,4.62,0,0,1,1.64-.62Zm1.26-.23,1.51,8.19-1.83.34L71,108.37Z"/><path class="cls-1" d="M62.3,109.65,61.88,118l-1.34-.07-3-5.27.7,0-3.53,4.94-1.34-.07.42-8.32,1.85.1-.26,5.19-.32-.11,2.29-3.2,1.23.06,1.95,3.42-.32.08.26-5.2Z"/><path class="cls-1" d="M48.74,107.89a4.68,4.68,0,0,1,1.61.75,4.28,4.28,0,0,1,1.71,2.8,4.38,4.38,0,0,1-.1,1.72,4.28,4.28,0,0,1-.73,1.57A4.13,4.13,0,0,1,50,115.82a3.92,3.92,0,0,1-1.57.54,4.52,4.52,0,0,1-1.78-.11,4.47,4.47,0,0,1-1.59-.74,4.41,4.41,0,0,1-1.14-1.22,4,4,0,0,1-.56-1.55,4.53,4.53,0,0,1,.84-3.3,4.17,4.17,0,0,1,1.23-1.1,4.33,4.33,0,0,1,1.56-.55A4.55,4.55,0,0,1,48.74,107.89Zm-.39,1.66a2.54,2.54,0,0,0-1.34,0,2.26,2.26,0,0,0-1.07.68,2.91,2.91,0,0,0-.64,1.25,3,3,0,0,0-.08,1.07,2.21,2.21,0,0,0,.29.92,2.14,2.14,0,0,0,.63.71,2.85,2.85,0,0,0,2.27.43,2.24,2.24,0,0,0,1.07-.67,3,3,0,0,0,.63-1.25,3.39,3.39,0,0,0,.09-1.08,2.41,2.41,0,0,0-.29-.93,2.26,2.26,0,0,0-.63-.71A2.64,2.64,0,0,0,48.35,109.55Z"/><path class="cls-1" d="M41,109.13l-.56,1.27-1.61-.72a1.24,1.24,0,0,0-.89-.09,1.08,1.08,0,0,0-.61,1.36,1.12,1.12,0,0,0,.65.61l1.61.73L39,113.61l-1.81-.81a3.19,3.19,0,0,1-1.21-.88,2.42,2.42,0,0,1-.53-1.19,2.26,2.26,0,0,1,.2-1.29,2.36,2.36,0,0,1,.85-1,2.39,2.39,0,0,1,1.25-.38,3.55,3.55,0,0,1,1.5.33Zm-1.43-4.39.9,4.33-1.75-.26-1.17-5Zm4.13,1.85-3.39,7.6-1.71-.76,3.4-7.6Z"/><path class="cls-1" d="M32.35,108.45l-.86,1.35-3.8-2.42.86-1.35Zm1.75-2.75L33.26,107l-3.51-2.23.85-1.32Zm3.07-2.16-4.48,7-1.57-1,4.47-7ZM36,102.77l-.86,1.36-3.86-2.46.86-1.35Z"/><path class="cls-1" d="M28.29,100.08l-1.06,1.17-3.11-2.83,1.07-1.17Z"/><path class="cls-1" d="M20.78,94.18,19.67,95,18.6,93.64a1.21,1.21,0,0,0-.74-.5,1.05,1.05,0,0,0-1.18.9,1.12,1.12,0,0,0,.28.85L18,96.29l-1.15.89-1.21-1.57A3.24,3.24,0,0,1,15,94.26a2.38,2.38,0,0,1,.09-1.3,2.44,2.44,0,0,1,.79-1,2.29,2.29,0,0,1,2.53-.25,3.36,3.36,0,0,1,1.16,1Zm3.58-1-6.6,5.09-1.14-1.48,6.6-5.09Zm-2.77-3.59-1.25,4.25-1.42-1.07,1.32-4.92Z"/><path class="cls-1" d="M13.44,89.46l-1.4.79L9.83,86.32l1.4-.79Zm6.56-2-7.26,4.07-.91-1.62,7.26-4.08Zm-3.72.45-1.37.77-2-3.62,1.37-.77Zm3-1.7-1.4.79-2.24-4,1.4-.78Z"/><path class="cls-1" d="M16.86,81.92,7.91,81.7l-.59-1.58L14,74.18,14.7,76,9.08,80.74l-.24-.64H16.2ZM14.8,80.66l-1.41.52-1.57-4.25,1.42-.52Z"/><path class="cls-1" d="M13.68,72.37l-1.6.29-.36-2a2.66,2.66,0,0,0-.54-1.24,2.06,2.06,0,0,0-1-.7,2.83,2.83,0,0,0-1.4-.06,2.73,2.73,0,0,0-1.27.54,2.13,2.13,0,0,0-.71,1,2.8,2.8,0,0,0-.07,1.33l.38,2.08-1.61.29-.37-2.1a4.79,4.79,0,0,1,0-1.77,4,4,0,0,1,.6-1.52,3.84,3.84,0,0,1,1.13-1.14,4.13,4.13,0,0,1,1.6-.63,4.39,4.39,0,0,1,1.7,0,4,4,0,0,1,1.47.68,4.27,4.27,0,0,1,1.1,1.21,4.79,4.79,0,0,1,.6,1.64Zm.23,1.26L5.71,75.1l-.33-1.84,8.2-1.47Z"/><path class="cls-1" d="M12.34,63.06,4,62.59l.07-1.34,5.28-3,0,.7L4.42,55.41l.08-1.34,8.32.46-.11,1.85-5.19-.29.11-.31,3.19,2.3-.06,1.22L7.33,61.24l-.08-.32,5.2.29Z"/><path class="cls-1" d="M14.16,49.51a4.77,4.77,0,0,1-.75,1.61,4.34,4.34,0,0,1-1.25,1.13,4.12,4.12,0,0,1-1.56.56,4.38,4.38,0,0,1-1.72-.1A4.19,4.19,0,0,1,7.32,52a4,4,0,0,1-1.09-1.23,4.25,4.25,0,0,1-.54-1.57,4.93,4.93,0,0,1,.12-1.78,4.67,4.67,0,0,1,.75-1.59,4.42,4.42,0,0,1,1.23-1.13,4,4,0,0,1,1.55-.55,4.44,4.44,0,0,1,1.73.11,4.33,4.33,0,0,1,1.56.74,4.17,4.17,0,0,1,1.1,1.23,4.25,4.25,0,0,1,.54,1.57A4.37,4.37,0,0,1,14.16,49.51Zm-1.65-.4a2.54,2.54,0,0,0,0-1.34,2.29,2.29,0,0,0-.67-1.07,2.81,2.81,0,0,0-1.25-.64A3.06,3.06,0,0,0,9.52,46a2.42,2.42,0,0,0-.92.29,2.26,2.26,0,0,0-.71.63,2.65,2.65,0,0,0-.43.93,2.44,2.44,0,0,0,0,1.34,2.22,2.22,0,0,0,.66,1.07,3,3,0,0,0,1.24.64,3.2,3.2,0,0,0,1.09.09,2.4,2.4,0,0,0,.93-.28,2.26,2.26,0,0,0,.71-.63A2.66,2.66,0,0,0,12.51,49.11Z"/><path class="cls-1" d="M15.49,44.5,7.9,41.07l.77-1.7,7.59,3.44ZM13,41.79l-1.27-.57.72-1.6a1.25,1.25,0,0,0,.1-.89,1,1,0,0,0-.56-.59,1,1,0,0,0-.8,0,1.12,1.12,0,0,0-.61.65l-.73,1.61-1.33-.6L9.31,38a3.2,3.2,0,0,1,.89-1.2,2.42,2.42,0,0,1,1.19-.53,2.34,2.34,0,0,1,1.29.2,2.26,2.26,0,0,1,1.42,2.12A3.38,3.38,0,0,1,13.76,40Zm4.39-1.41L13,41.26l.28-1.75,5-1.14Z"/><path class="cls-1" d="M18.57,38l-7-4.51,1-1.57,7,4.51Zm-4.88-4.84-1.35-.87,2.44-3.79,1.35.87Zm2.74,1.76L15.11,34l2.24-3.49,1.32.85Zm2.92,1.88L18,35.88,20.47,32l1.35.87Z"/><path class="cls-1" d="M22.09,29.08,20.93,28l2.84-3.09L24.93,26Z"/></svg>