<svg width="48" height="48" viewBox="0 0 48 48" fill="none" xmlns="http://www.w3.org/2000/svg">
<path d="M28 22V16C37.12 14.84 44 9.8 44 4H4C4 9.8 10.88 14.84 20 16V22C12.64 23.46 4 29.22 4 44H16V40H8.26C10.12 26.34 21.56 25.6 24 25.6C26.44 25.6 37.88 26.34 39.74 40H32V44H44C44 29.22 35.36 23.46 28 22ZM37.74 8C35 10.38 30 12.24 24 12.24C18 12.24 13 10.38 10.26 8H37.74ZM24 44C21.8 44 20 42.2 20 40C20 38.9 20.44 37.9 21.18 37.18C22.78 35.58 32 32 32 32C32 32 28.42 41.22 26.82 42.82C26.1 43.56 25.1 44 24 44Z" fill="white"/>
</svg>
