<svg width="57" height="57" viewBox="0 0 57 57" fill="none" xmlns="http://www.w3.org/2000/svg">
<path d="M16.625 42.75C11.3762 42.75 7.125 38.4987 7.125 33.25C7.125 28.0012 11.3762 23.75 16.625 23.75C21.8737 23.75 26.125 28.0012 26.125 33.25C26.125 38.4987 21.8737 42.75 16.625 42.75ZM16.625 28.5C14.0125 28.5 11.875 30.6375 11.875 33.25C11.875 35.8625 14.0125 38 16.625 38C19.2375 38 21.375 35.8625 21.375 33.25C21.375 30.6375 19.2375 28.5 16.625 28.5ZM26.125 23.75C20.8763 23.75 16.625 19.4987 16.625 14.25C16.625 9.00125 20.8763 4.75 26.125 4.75C31.3738 4.75 35.625 9.00125 35.625 14.25C35.625 19.4987 31.3738 23.75 26.125 23.75ZM26.125 9.5C23.5125 9.5 21.375 11.6375 21.375 14.25C21.375 16.8625 23.5125 19 26.125 19C28.7375 19 30.875 16.8625 30.875 14.25C30.875 11.6375 28.7375 9.5 26.125 9.5ZM39.425 51.3C34.1763 51.3 29.925 47.0488 29.925 41.8C29.925 36.5513 34.1763 32.3 39.425 32.3C44.6738 32.3 48.925 36.5513 48.925 41.8C48.925 47.0488 44.6738 51.3 39.425 51.3ZM39.425 37.05C36.8125 37.05 34.675 39.1875 34.675 41.8C34.675 44.4125 36.8125 46.55 39.425 46.55C42.0375 46.55 44.175 44.4125 44.175 41.8C44.175 39.1875 42.0375 37.05 39.425 37.05Z" fill="white"/>
</svg>
