<svg width="53" height="53" viewBox="0 0 53 53" fill="none" xmlns="http://www.w3.org/2000/svg">
<path d="M26.5 17.6668C28.9393 17.6668 30.9167 15.6894 30.9167 13.2502C30.9167 10.8109 28.9393 8.8335 26.5 8.8335C24.0608 8.8335 22.0834 10.8109 22.0834 13.2502C22.0834 15.6894 24.0608 17.6668 26.5 17.6668Z" fill="white"/>
<path d="M46.375 35.3333V30.9167C41.4283 30.9167 37.1883 28.7967 34.0083 24.9983L31.0492 21.465C30.21 20.4492 28.9733 19.875 27.6704 19.875H25.3517C24.0487 19.875 22.8121 20.4492 21.9729 21.465L19.0137 24.9983C15.8117 28.7967 11.5717 30.9167 6.625 30.9167V35.3333C12.7421 35.3333 18.0862 32.7496 22.0833 28.1562V33.125L13.515 36.5479C12.0354 37.1442 11.0417 38.6017 11.0417 40.2137C11.0417 42.4 12.8083 44.1667 14.9946 44.1667H19.875V43.0625C19.875 40.015 22.3483 37.5417 25.3958 37.5417H32.0208C32.6392 37.5417 33.125 38.0275 33.125 38.6458C33.125 39.2642 32.6392 39.75 32.0208 39.75H25.3958C23.5629 39.75 22.0833 41.2296 22.0833 43.0625V44.1667H38.0054C40.1917 44.1667 41.9583 42.4 41.9583 40.2137C41.9583 38.6017 40.9646 37.1442 39.485 36.5479L30.9167 33.125V28.1562C34.9137 32.7496 40.2579 35.3333 46.375 35.3333Z" fill="white"/>
</svg>
