<svg width="31" height="32" viewBox="0 0 31 32" fill="none" xmlns="http://www.w3.org/2000/svg">
<path d="M20.021 14.6667C21.091 14.6667 21.9585 13.7713 21.9585 12.6667C21.9585 11.5622 21.091 10.6667 20.021 10.6667C18.9509 10.6667 18.0835 11.5622 18.0835 12.6667C18.0835 13.7713 18.9509 14.6667 20.021 14.6667Z" fill="white"/>
<path d="M10.979 14.6667C12.0491 14.6667 12.9165 13.7713 12.9165 12.6667C12.9165 11.5622 12.0491 10.6667 10.979 10.6667C9.90895 10.6667 9.0415 11.5622 9.0415 12.6667C9.0415 13.7713 9.90895 14.6667 10.979 14.6667Z" fill="white"/>
<path d="M15.5002 21.3334C13.5885 21.3334 11.9481 20.2534 11.0439 18.6667H8.88683C9.92016 21.4001 12.4906 23.3334 15.5002 23.3334C18.5097 23.3334 21.0802 21.4001 22.1135 18.6667H19.9564C19.0652 20.2534 17.4118 21.3334 15.5002 21.3334ZM15.4872 2.66675C8.35725 2.66675 2.5835 8.64008 2.5835 16.0001C2.5835 23.3601 8.35725 29.3334 15.4872 29.3334C22.6302 29.3334 28.4168 23.3601 28.4168 16.0001C28.4168 8.64008 22.6302 2.66675 15.4872 2.66675ZM15.5002 26.6667C9.791 26.6667 5.16683 21.8934 5.16683 16.0001C5.16683 10.1067 9.791 5.33341 15.5002 5.33341C21.2093 5.33341 25.8335 10.1067 25.8335 16.0001C25.8335 21.8934 21.2093 26.6667 15.5002 26.6667Z" fill="white"/>
</svg>
