<svg width="32" height="32" viewBox="0 0 32 32" fill="none" xmlns="http://www.w3.org/2000/svg">
<path d="M20 1.33325H12V3.99992H20V1.33325ZM14.6667 18.6666H17.3333V10.6666H14.6667V18.6666ZM25.3733 9.85325L27.2667 7.95992C26.6933 7.27992 26.0667 6.63992 25.3867 6.07992L23.4933 7.97325C21.4267 6.31992 18.8267 5.33325 16 5.33325C9.37333 5.33325 4 10.7066 4 17.3333C4 23.9599 9.36 29.3333 16 29.3333C22.64 29.3333 28 23.9599 28 17.3333C28 14.5066 27.0133 11.9066 25.3733 9.85325ZM16 26.6666C10.84 26.6666 6.66667 22.4933 6.66667 17.3333C6.66667 12.1733 10.84 7.99992 16 7.99992C21.16 7.99992 25.3333 12.1733 25.3333 17.3333C25.3333 22.4933 21.16 26.6666 16 26.6666Z" fill="white"/>
</svg>
