<?xml version="1.0" encoding="UTF-8"?> <svg xmlns="http://www.w3.org/2000/svg" width="1000" height="1000" viewBox="0 0 1000 1000"><defs><style> .cls-1 { fill: #ab3b0f; fill-rule: evenodd; } </style></defs><path id="DANMARKS_ENESTE_HALALCATERINGVIRKSOMHED_-" data-name="DANMARKS ENESTE HALALCATERINGVIRKSOMHED -" class="cls-1" d="M433.151,886.841a24.817,24.817,0,0,0,9.638,11.253,36.987,36.987,0,0,0,15.981,5.26l18.972,2.135,6.866-61.019-17.177-1.933q-15.466-1.74-24.98,5.108T431.2,869.962Q430.093,879.789,433.151,886.841Zm32.909-35.2,6.581,0.741L467.823,895.2l-8.034-.9q-9.486-1.067-13.908-6.757t-3.192-16.629q2.433-21.622,23.371-19.266h0Zm-90.144-29.4,4.371,65.5,12.054,3.515,38.891-52.89L420,835.093l-9.834,14.063-22.209-6.475-0.817-17.169Zm12.122,30.319,16.595,4.839L395,871.07q-0.537.919-1.669,2.649t-2.376,3.7q-1.245,1.965-2.14,3.5,0.081-1.5.074-3.786t-0.088-4.46q-0.082-2.174-.076-3.426Zm-93.982-2.319,8.9,4.5,14.081-27.862q1.825-3.8,3.688-7.869t3.262-7.216l0.23,0.116,4.3,55.748,12.127,6.129,27.7-54.8-8.826-4.461-13.965,27.632q-1.94,4.029-3.746,8.08t-3.321,7.62l-0.307-.155L333.956,801.6l-12.2-6.168Zm-14.3-85.944-45.3,27.887-0.266-.217q1.206-1.346,3.26-3.667t4.352-4.94q2.3-2.62,4.144-4.889l20.407-25.083-8.139-6.621L219.454,794.4l11.875,9.661,43.523-26.787,0.267,0.217-17.907,47.628,11.875,9.661,38.752-47.632-7.672-6.241-20.081,24.683q-2.009,2.467-4.215,5.385t-4.054,5.46q-1.846,2.544-2.867,3.932l-0.267-.217,18.675-49.664Zm-63.695-67.932-33.269,56.6,7.983,9.692,61.92-21.813-7.436-9.027L229.21,737.9,214.5,720.039l8.992-14.649Zm-7.053,31.882L220,741.587l-15.659,5.878q-0.96.457-2.87,1.25t-4.045,1.717q-2.136.923-3.737,1.685,0.91-1.194,2.192-3.087t2.438-3.735q1.157-1.843,1.867-2.875Zm-50.157-8.262,53.141-30.764-5.515-9.527-20.989,12.151L181,684.1l13.621-24.878-6.205-10.718-14.537,28.787a24.367,24.367,0,0,0-5.827-3.284,15.705,15.705,0,0,0-14.218,1.274q-7.887,4.567-8.851,11.832t5.114,17.759Zm-3.635-28.85q0.209-3.847,4.525-6.345,4.168-2.415,7.818-1t7.055,7.294l3.059,5.284L161.3,705.845l-2.887-4.986Q155.005,694.981,155.213,691.132ZM144.351,629.6L111.113,618.1l4.421,11.66,24.621,8.415,5.462,1.792q2.733,0.894,5.351,1.741L123.95,651.956l3.9,10.292,57.414-21.771-3.9-10.292L160.216,638.2l-6.305-3.772,18.946-26.683-4.482-11.82Zm-8.79-69.521a16.354,16.354,0,0,0-4.335,6.43,57.016,57.016,0,0,0-2.6,9.179q-0.945,4.6-1.807,7.557a12.051,12.051,0,0,1-2.27,4.579,6.974,6.974,0,0,1-3.933,2.165,6.587,6.587,0,0,1-5.575-1.177q-2.463-1.846-3.4-6.218a27.34,27.34,0,0,1-.584-7.219,58.613,58.613,0,0,1,.978-7.731l-9.4-1.586a51.341,51.341,0,0,0-1.06,8.98,38.8,38.8,0,0,0,.916,9.172q1.951,9.081,7.447,13.573t13.231,2.83a15.809,15.809,0,0,0,8.107-4.03,19.116,19.116,0,0,0,4.356-6.742,48.264,48.264,0,0,0,2.266-7.876,57.17,57.17,0,0,1,2.786-10.363,7.428,7.428,0,0,1,11.374-3.148q2.646,2.07,3.8,7.451a32.2,32.2,0,0,1,.6,9.547,74.553,74.553,0,0,1-1.28,8.984l10.09-2.169q1.881-7.617-.252-17.539-2.2-10.257-8.076-15.065t-13.859-3.091A16.224,16.224,0,0,0,135.561,560.075Zm10.86-75.68,0.387,23.905-18.057.293-0.363-22.357-9.2.149,0.363,22.357L103.9,509l-0.388-23.9-9.2.149,0.566,34.912,61.4-1-0.566-34.911Zm-42.612-74.562-1.574,9.851,30.827,4.926q4.176,0.582,8.618,1.116t7.867,0.909l-0.04.254L97.717,447.963l-2.144,13.418,60.635,9.689,1.561-9.766L127.2,456.419q-4.43-.62-8.837-1.107t-8.27-.843l0.054-.34,52.144-21.1,2.157-13.5Zm67.81-41.755-7.712,22.63-17.095-5.825,7.213-21.165-8.71-2.968L138.1,381.915l-14.815-5.049L131,354.236l-8.711-2.968-11.262,33.05,58.122,19.806,11.262-33.05Zm7.161-50.414a16.356,16.356,0,0,0-7.413,2.277,57.127,57.127,0,0,0-7.792,5.506q-3.627,2.986-6.154,4.744a12.043,12.043,0,0,1-4.643,2.135,6.961,6.961,0,0,1-4.42-.788,6.582,6.582,0,0,1-3.6-4.418q-0.756-2.984,1.259-6.976a27.338,27.338,0,0,1,4.082-5.983,58.771,58.771,0,0,1,5.619-5.4L149.4,301.62a51.242,51.242,0,0,0-6.468,6.32,38.769,38.769,0,0,0-5.051,7.71q-4.188,8.289-2.736,15.238t8.515,10.516a15.8,15.8,0,0,0,8.838,1.959,19.119,19.119,0,0,0,7.625-2.507,48.417,48.417,0,0,0,6.712-4.7,57.214,57.214,0,0,1,8.679-6.311,7.428,7.428,0,0,1,10.827,4.7q0.756,3.272-1.726,8.185a32.216,32.216,0,0,1-5.532,7.8,74.609,74.609,0,0,1-6.641,6.184l9.212,4.653q6.249-4.742,10.825-13.8,4.731-9.363,3.185-16.794t-8.839-11.113A16.223,16.223,0,0,0,178.78,317.664Zm-1-48.174,10.068-14.473-7.624-5.3L153.8,287.693,161.428,293,171.5,278.526l42.781,29.763,6.287-9.036Zm76.1-23.645-16.265,17.523-13.236-12.287,15.211-16.388-6.744-6.26-15.212,16.388-11.472-10.648L222.43,216.65l-6.744-6.26-23.754,25.591,45.005,41.773,23.753-25.59Zm39.587-95.619-9.119,6.166,13.873,20.518-22.37,15.125-13.873-20.518-9.12,6.166,34.394,50.868,9.119-6.166L281.1,199.8l22.371-15.126,15.269,22.584,9.12-6.165Zm94.022,23.315-45.52-47.306-11.486,5.072,4.3,65.509,10.7-4.724L343.951,175l21.162-9.345,11.68,12.61Zm-28.8-15.394-15.813,6.983-1.436-16.664q-0.181-1.049-.429-3.1t-0.562-4.359q-0.312-2.306-.614-4.053,0.9,1.2,2.381,2.944t2.939,3.356q1.463,1.611,2.264,2.573Zm72.227,4.133-2.406-8.97-24.753,6.639-13.5-50.337-10.633,2.851,15.907,59.308Zm59.9-7.353L461.725,96.076,449.243,97.44l-15.7,63.744,11.627-1.27,3.707-16.756,23-2.512,7.322,15.551Zm-22.8-23.377-17.183,1.877,3.667-16.319q0.144-1.053.528-3.085t0.782-4.325q0.4-2.292.639-4.049,0.5,1.417,1.38,3.526t1.788,4.087q0.908,1.977,1.381,3.137Zm67.585,25.634L536,147.9l-25.606-1.072,2.181-52.071-11-.46L499,155.651Zm51.1-43.714q3.212,1.78,6.155,3.817l5.377-8.182a42.413,42.413,0,0,0-7.783-4.471,39.452,39.452,0,0,0-8.807-2.737q-9.215-1.721-16.339,1.062a25.813,25.813,0,0,0-11.723,9.142,37.916,37.916,0,0,0-6.3,15.489,42.385,42.385,0,0,0-.094,16.911,23.513,23.513,0,0,0,7.027,12.509q5.368,4.985,14.668,6.719a50.321,50.321,0,0,0,8.792.94,37.681,37.681,0,0,0,7.892-.8l1.719-9.215a72.711,72.711,0,0,1-8.011.736,34.878,34.878,0,0,1-7.589-.586q-8.793-1.641-11.938-8.22t-1.237-16.81q1.893-10.144,7.52-15.218t13.913-3.528A22.3,22.3,0,0,1,586.706,113.47Zm57.958,73-0.09-65.649-11.8-4.294-42.257,50.242,10.991,4,10.73-13.393,21.739,7.911-0.3,17.185Zm-10.119-31.045-16.244-5.91L628.8,136.5q0.6-.882,1.837-2.534t2.613-3.534q1.371-1.879,2.363-3.35-0.178,1.493-.321,3.773t-0.2,4.456q-0.06,2.175-.148,3.424Zm55.57-3.057,15.578,8.255,4.349-8.206-40.883-21.665-4.349,8.207,15.578,8.255-24.4,46.049,9.727,5.155Zm32.623,72.738L703.4,211.057l10.615-14.611,18.09,13.142,5.409-7.445L719.418,189l9.2-12.663,19.343,14.052,5.408-7.445L725.12,162.423,689.03,212.1l28.249,20.522Zm47.68-27.794-43.094,43.741,7.842,7.726,17.02-17.276,6.371,6.277-6.544,27.6,8.822,8.691,6.393-31.609a24.357,24.357,0,0,0,6.488,1.624,15.706,15.706,0,0,0,13.372-5q6.4-6.494,5.4-13.754t-9.634-15.77Zm11.147,26.857q0.817,3.765-2.682,7.318-3.381,3.43-7.275,3.034t-8.735-5.165l-4.35-4.286L771.8,211.6l4.1,4.044Q780.745,220.407,781.565,224.172Zm1.875,69.578-2.41-7.515,34-26.744,6.8,4.058,4.934-3.881-15.951-20.279-4.934,3.882,2.342,7.568-34,26.744-6.735-4.111-4.935,3.881,15.951,20.278Zm81.294,27.178-4.97-8.651L832.7,327.829q-3.612,2.172-7.4,4.55t-6.689,4.24l-0.128-.224L845.5,287.446l-6.769-11.782-53.243,30.588,4.927,8.576L817.258,299.4q3.834-2.3,7.568-4.695t6.96-4.544l0.172,0.3-27.279,49.2,6.812,11.856ZM848.891,381.6l4.02,11.713-13.991,4.8q-1.05-1.732-2.1-3.734a37.061,37.061,0,0,1-2.112-5.1q-2.149-6.264-.8-11.089a16.185,16.185,0,0,1,5.448-8.234,32.364,32.364,0,0,1,10.286-5.531,26.716,26.716,0,0,1,11.98-1.52,18.133,18.133,0,0,1,9.637,4.1,20.565,20.565,0,0,1,6.12,9.356,29.939,29.939,0,0,1,1.593,7.819,44.6,44.6,0,0,1-.073,7.207l9.77,0.648a49.291,49.291,0,0,0-.256-8.959,44.913,44.913,0,0,0-2.165-9.486q-3.323-9.681-9.3-15.175a26.057,26.057,0,0,0-13.9-6.73,35.179,35.179,0,0,0-16.954,1.863q-14.317,4.914-19.7,14.67t-0.857,22.934a68.271,68.271,0,0,0,4.65,10.77,78.063,78.063,0,0,0,5.585,8.721L865.3,400.521l-7.537-21.963Zm53.853,69.1L863.67,444.46q-1.625-.349-4.154-0.637t-5.172-.473q-2.643-.185-4.552-0.137,1.812-.641,4.258-1.688t4.754-2.117q2.31-1.071,3.757-1.825l35.131-18.209L895.9,408.251,838.659,439l1.876,11.632,64,11.195Zm-52.233,49.6,2.49-7.489,43.231-1.527,3.1,7.291,6.274-.222-0.911-25.784-6.274.222-2.575,7.492-43.231,1.527L849.6,474.52l-6.274.222,0.911,25.784Zm55.018,16.776-61.156-5.511-0.988,10.964,24.154,2.176-0.8,8.908-25.474,12.471-1.112,12.334,28.478-15.136a24.322,24.322,0,0,0,2.866,6.044,15.7,15.7,0,0,0,12.35,7.157q9.078,0.818,14.054-4.562t6.064-17.458Zm-13.667,25.666q-2.389,3.022-7.356,2.575-4.8-.432-6.964-3.693T875.985,531.6l0.548-6.081,18.843,1.7-0.517,5.738Q894.25,539.723,891.862,542.746Zm-26.6,56.538L885.8,627.836l3.108-12.076L873.64,594.691q-1.717-2.307-3.431-4.613t-3.368-4.508l27.984,7.2,2.744-10.661L838.1,566.806l-2.744,10.661,21.9,5.638,2.978,6.716L829.378,600.7l-3.151,12.242Zm-32.892,61.873a16.368,16.368,0,0,0,7.25-2.754,57.094,57.094,0,0,0,7.416-6q3.426-3.217,5.833-5.134a12.052,12.052,0,0,1,4.494-2.433,6.966,6.966,0,0,1,4.462.5,6.586,6.586,0,0,1,3.877,4.175q0.948,2.928-.8,7.043a27.3,27.3,0,0,1-3.684,6.236,58.55,58.55,0,0,1-5.255,5.754l6.768,6.715a51.266,51.266,0,0,0,6.043-6.727,38.754,38.754,0,0,0,4.538-8.022q3.641-8.546,1.739-15.384t-9.181-9.939a15.792,15.792,0,0,0-8.947-1.38,19.1,19.1,0,0,0-7.446,3,48.266,48.266,0,0,0-6.391,5.129,57.108,57.108,0,0,1-8.251,6.862,7.428,7.428,0,0,1-11.109-3.983q-0.967-3.217,1.19-8.28a32.171,32.171,0,0,1,5.012-8.148,74.492,74.492,0,0,1,6.224-6.6l-9.5-4.044q-5.928,5.139-9.9,14.477-4.112,9.652-2.085,16.966t9.543,10.514A16.215,16.215,0,0,0,832.373,661.157ZM815.7,732.873a23.9,23.9,0,0,0,14.42-2.087q6.753-3.279,12-11.456,5.343-8.324,5.511-15.829a23.879,23.879,0,0,0-4.107-13.98,40.619,40.619,0,0,0-12.236-11.584,41.144,41.144,0,0,0-15.736-6.371,24.079,24.079,0,0,0-14.493,2.041q-6.789,3.252-12.086,11.5-5.249,8.177-5.4,15.743a24.057,24.057,0,0,0,4.12,14.039A45.684,45.684,0,0,0,815.7,732.873ZM836.446,700q2.74,6.714-2.138,14.314-4.923,7.671-12.1,7.868t-15.935-5.425q-8.757-5.622-11.544-12.265t2.138-14.315q4.878-7.6,12.1-7.867t15.981,5.353Q833.7,693.282,836.446,700Zm-96,46.055,23.148,47.9-0.243.244q-1.216-1.338-3.317-3.616t-4.474-4.83q-2.373-2.553-4.443-4.618l-22.884-22.846-7.413,7.425,43.456,43.383,10.815-10.834-22.235-46.015L753.1,752l45.566,22.645,10.815-10.834L766.022,720.43l-6.988,7,22.519,22.481q2.251,2.247,4.93,4.739t5.021,4.587q2.343,2.1,3.621,3.251l-0.243.243-47.514-23.616Zm-40.225,107.38,9.229-6-13.5-20.763,22.638-14.722,13.5,20.764,9.228-6-33.475-51.477-9.229,6,14.863,22.855-22.638,14.721L675.97,795.955l-9.228,6Zm-76.239-21.969,21.908-9.572,7.231,16.549-20.49,8.952,3.684,8.433,20.49-8.953,6.266,14.343-21.908,9.572,3.684,8.432,32-13.979-24.584-56.268-32,13.979ZM574.785,885.4a24.824,24.824,0,0,0,12.992,7.123,37,37,0,0,0,16.809-.725l18.5-4.705-15.132-59.51-16.753,4.26q-15.084,3.836-21.565,13.6T567,870.3Q569.434,879.879,574.785,885.4Zm18.353-44.554,6.418-1.632,10.618,41.757-7.835,1.992q-9.25,2.352-15.4-1.408t-8.86-14.43q-5.363-21.087,15.058-26.279h0Zm-85.046,21.72,0.471,9.1,21.815-1.128-0.471-9.1Z"></path></svg> 